<?xml version="1.0" encoding="UTF-8"?>
<svg width="960px" height="960px" viewBox="0 0 960 960" version="1.1" xmlns="http://www.w3.org/2000/svg" xmlns:xlink="http://www.w3.org/1999/xlink">
    <!-- Generator: Sketch 60 (88103) - https://sketch.com -->
    <title>drivers/acc-socket/assets/icon</title>
    <desc>Created with Sketch.</desc>
    <g id="/drivers/acc-socket/assets/icon" stroke="none" stroke-width="1" fill="none" fill-rule="evenodd">
        <rect id="Rectangle" stroke="#000000" stroke-width="14.7000003" x="61.3500001" y="62.3500001" width="833.3" height="833.3" rx="190.845213"/>
        <rect id="Rectangle" stroke="#000000" stroke-width="30" x="19" y="19" width="918" height="918" rx="214.00001"/>
        <g id="Creation/Socket-EU" transform="translate(147.000000, 148.000000)">
            <path d="M601.51,367.238268 L600.894059,373.145501 C597.347493,407.15911 587.54285,439.795515 571.721556,470.262797 L570.868232,471.892894 L559.93659,492.445 L559.93659,367.238268 L601.51,367.238268 Z M101.336984,367.238268 L101.336984,492.41098 L90.209798,471.540509 C82.8691951,457.6408 76.7468193,443.260771 71.9812135,428.716266 C66.423156,411.814224 62.5851571,394.513644 60.5515912,377.187052 L60.3162299,375.10776 L59.49,367.238268 L101.336984,367.238268 Z M559.93965,165.25 L570.002425,183.786543 C585.801824,212.890471 595.939764,244.065161 600.173234,276.568561 L600.398293,278.342787 L601.329713,286.104284 L559.93965,286.104284 L559.93965,165.25 Z M101.335454,165.384991 L101.335454,286.104284 L59.6624882,286.104284 L60.6554399,278.067579 C62.917213,260.317394 66.9081133,243.054574 72.526514,226.722811 C77.4776569,212.128335 83.457351,198.279619 90.3385989,185.474498 L91.2825271,183.734842 L101.335454,165.384991 Z" id="Combined-Shape" stroke="#000000" stroke-width="10.7000005" stroke-linejoin="round" fill-rule="nonzero"/>
            <path d="M431.3025,328.848348 C431.3025,305.118256 450.538256,285.8825 474.266652,285.8825 C497.996744,285.8825 517.2325,305.118256 517.2325,328.848348 C517.2325,352.576744 497.996744,371.8125 474.266652,371.8125 C450.538256,371.8125 431.3025,352.576744 431.3025,328.848348 Z" id="Combined-Shape-path" fill="#000000" fill-rule="nonzero"/>
            <path d="M142.115,328.848348 C142.115,305.118256 161.350377,285.8825 185.08,285.8825 C208.809623,285.8825 228.045,305.118256 228.045,328.848348 C228.045,352.576744 208.809623,371.8125 185.08,371.8125 C161.350377,371.8125 142.115,352.576744 142.115,328.848348 Z" id="Combined-Shape-path" fill="#000000" fill-rule="nonzero"/>
            <circle id="Oval" stroke="#000000" stroke-width="16.0500008" cx="330.5" cy="330.5" r="315.6275"/>
        </g>
    </g>
</svg>