<?xml version="1.0" encoding="UTF-8"?>
<svg width="960px" height="960px" viewBox="0 0 960 960" version="1.1" xmlns="http://www.w3.org/2000/svg" xmlns:xlink="http://www.w3.org/1999/xlink">
    <!-- Generator: Sketch 60 (88103) - https://sketch.com -->
    <title>assets/icon</title>
    <desc>Created with Sketch.</desc>
    <g id="assets/icon" stroke="none" stroke-width="1" fill="none" fill-rule="evenodd">
        <path d="M778.680066,727.493317 C779.306405,732.830879 779.46299,736.05088 778.914943,736.601009 C775.787596,739.740238 744.892538,741.309852 738.089797,738.63998 C730.188787,735.579341 725.419474,729.613061 723.931918,720.976908 C723.305579,717.285367 723.151169,700.170242 723.305579,664.293969 L723.540456,612.870002 L734.881983,610.35731 C741.138852,609.021282 747.630598,607.92539 749.353031,608.00398 L752.480378,608.158976 L752.87184,627.786795 L753.261128,647.41243 L764.524362,647.650383 C771.405395,647.728973 776.257351,648.200512 776.881515,648.748458 C777.664439,649.377177 777.899317,651.887686 777.740557,659.111404 L777.507854,668.609863 L765.148526,668.847815 L752.793548,669.081402 L753.02625,691.379092 C753.341595,719.64088 752.556496,717.992676 765.463871,718.228446 C778.525656,718.542805 777.507854,717.835496 778.680066,727.493317" id="Fill-1" fill="#020303"></path>
        <path d="M695.231613,694.031319 C695.308963,724.933885 695.154264,737.120874 694.537614,737.827081 C693.377369,739.322578 667.568343,739.401288 666.178197,737.986688 C665.482049,737.276108 665.25,726.505906 665.25,694.503581 C665.25,671.071942 665.482049,651.650158 665.791448,651.335316 C666.100847,651.099185 672.746478,650.941765 680.627555,651.020475 L694.999564,651.258792 L695.231613,694.031319 Z" id="Fill-3" fill="#020303"></path>
        <path d="M695.25,623 L695.25,639 L680.424275,638.842047 L665.521391,638.60178 L665.281093,623.80089 C665.201728,615.720801 665.281093,608.599555 665.442026,608.038932 C665.75728,607.240267 669.324272,607 680.585209,607 L695.25,607 L695.25,623 Z" id="Fill-5" fill="#020303"></path>
        <path d="M633.25,658.855757 L633.25,709.467039 L630.327702,715.58726 C623.380932,730.024872 609.327116,738.735005 589.031306,741.170002 C557.764254,744.933774 533.446168,735.754534 524.049147,716.52984 C519.311116,706.955676 519.073995,703.896656 519.311116,656.108748 L519.548237,612.953008 L532.181522,610.441644 C539.130488,609.106323 546.393419,608.008829 548.369428,608.087377 L551.921854,608.244474 L552.317056,657.286973 L552.710062,706.329471 L554.52799,709.626317 C558.238496,716.52984 564.397058,718.805558 578.848272,718.412817 C587.847896,718.098623 589.505548,717.862979 592.902088,716.137098 C600.639262,712.292596 600.088175,716.449109 600.323101,661.759861 C600.402141,635.393818 600.797343,613.502846 601.113504,613.265019 C602.061989,612.324621 628.116767,607.773184 630.801944,608.008829 L633.25,608.244474 L633.25,658.855757 Z" id="Fill-7" fill="#020303"></path>
        <path d="M488.249333,714.531805 C496.799493,727.59927 502.47654,737.179142 502.243059,737.811048 C501.931751,738.841473 498.978649,739 485.140577,739 L468.500732,739 L458.549686,721.183332 L448.59864,703.289601 L445.409895,703.527392 L442.301139,703.762981 L441.909842,721.183332 L441.522869,738.605884 L427.993943,738.841473 C418.743339,739 414.15587,738.76221 413.455427,738.130304 C411.901049,736.862088 411.823222,613.735082 413.3776,612.469068 C413.844562,612.070549 419.054647,610.566745 424.80736,609.298529 C430.560072,607.953252 436.701919,606.925028 438.411951,607.004292 L441.522869,607.160617 L441.909842,645.169656 L442.301139,683.176494 L445.487722,683.414284 L448.674305,683.652075 L459.016648,666.469514 C464.691533,657.048169 469.977284,648.732109 470.599899,647.941676 C471.765143,646.673461 472.854721,646.673461 486.148004,647.466095 C496.101212,648.098001 500.610854,648.652846 500.766508,649.286954 C500.997827,649.839596 494.935969,659.500933 487.471063,670.8224 C479.92833,682.14827 473.788644,691.569616 473.788644,691.807406 C473.788644,692.12446 480.319627,702.259176 488.249333,714.531805" id="Fill-10" fill="#020303"></path>
        <path d="M384.231135,694.186647 C384.310532,725.493904 384.151738,737.215807 383.516563,738.079802 C382.804197,738.945985 379.709925,739.103473 368.607598,738.945985 L354.646984,738.709753 L354.408794,694.816598 L354.25,651 L369.081774,651.157488 L383.992944,651.395907 L384.231135,694.186647 Z" id="Fill-12" fill="#020303"></path>
        <path d="M384.25,623 L384.25,639 L369.719596,639 C357.242377,639 355.107943,638.842047 354.714873,637.720801 C354.082448,636.041157 354.082448,608.19911 354.793926,607.560623 C355.02889,607.240267 361.823067,607 369.796453,607 L384.25,607 L384.25,623 Z" id="Fill-14" fill="#020303"></path>
        <path d="M333.083258,719.791688 C334.276715,722.068518 336.665845,734.70787 336.187576,735.963073 C334.834696,739.575876 311.583311,741.459773 303.302177,738.632836 C297.806516,736.74894 293.187681,732.664617 290.48192,727.248687 L288.25,722.773614 L288.25,667.819719 L288.25,612.868006 L299.400745,610.43182 C305.531884,609.019443 312.141291,608 314.129648,608 L317.714449,608.15499 L318.113006,660.755652 C318.431852,701.343472 318.748484,713.744882 319.545598,715.080855 C320.97819,717.672031 323.048473,718.457898 327.986154,718.457898 C331.411532,718.457898 332.525278,718.770061 333.083258,719.791688" id="Fill-16" fill="#020303"></path>
        <path d="M273.25,736.80116 L273.25,739 L254.990302,739 L236.649626,739 L217.759604,712.299488 L198.869582,685.60116 L194.776854,685.60116 L190.605335,685.60116 L190.447754,712.063664 L190.211382,738.60696 L174.862556,738.60696 L159.515918,738.60696 L159.279546,675.78608 C159.200756,641.23132 159.279546,612.491368 159.515918,611.941112 C159.752289,611.157216 163.372275,611 175.020137,611.157216 L190.211382,611.390856 L190.447754,636.676424 L190.605335,662.042784 L194.855644,662.042784 L199.105954,662.042784 L216.814118,636.676424 L234.447869,611.390856 L252.234824,611.157216 L270.102757,611 L270.102757,613.668304 C270.102757,615.867144 266.953326,620.579256 249.166371,644.452064 C237.595112,660.00116 228.070216,673.036984 227.836033,673.58724 C227.676263,674.056704 237.752693,688.035824 250.34604,704.60464 C267.268488,726.828864 273.17121,735.229 273.25,736.80116" id="Fill-18" fill="#020303"></path>
        <path d="M553.359942,332.556735 C552.79182,333.506389 542.25,371.939845 542.25,373.048142 C542.25,373.762036 546.14344,374 557.251127,374 C568.115334,374 572.25,373.762036 572.25,373.048142 C572.25,371.939845 561.710434,333.506389 561.223473,332.636057 C560.655351,331.842842 553.846904,331.76352 553.359942,332.556735" id="Fill-20" fill="#020303"></path>
        <path d="M680.728164,397.860333 C674.19948,398.640282 668.516513,401.219109 667.057864,404.032572 C666.444932,405.283966 666.135262,408.095257 666.289029,411.610457 C666.596563,417.704484 667.596048,419.50119 671.895113,421.847554 C674.968314,423.409623 685.48853,423.409623 689.407449,421.688957 L692.25,420.517948 L692.25,408.799166 L692.25,397 L689.407449,397.078212 C687.795033,397.156424 683.878249,397.469273 680.728164,397.860333" id="Fill-22" fill="#020303"></path>
        <path d="M830,437.814647 L815.507304,437.814647 L801.01243,437.814647 L800.779344,403.507757 C800.54408,364.895081 800.857765,366.461019 794.666838,364.111023 C790.750128,362.623491 780.723091,362.85653 776.963224,364.659864 L774.769605,365.598555 L774.769605,400.924721 C774.769605,420.347579 774.45592,436.719144 774.142235,437.265807 C773.593285,437.971459 770.147104,438.206676 759.416453,438.049865 L745.392107,437.814647 L745.156843,398.572547 L745,359.25422 L748.134675,356.512195 C753.382368,351.655392 761.921579,348.131487 772.654408,346.17352 C780.801512,344.685988 798.585725,344.764393 805.948616,346.251926 C816.605202,348.44511 824.281779,353.537131 828.198488,360.898563 C830,364.189429 830,364.34624 830,401.000949 L830,437.814647 Z M721.399646,427.386418 C719.107855,431.628925 706.30415,437.599458 694.056363,440.113941 C688.130227,441.370091 666.161556,441.448737 660.789142,440.192587 C649.883909,437.75675 642.771228,433.278304 638.504059,426.051622 C636.52868,422.672034 636.370474,421.573177 636.054062,412.694931 C635.73765,400.832512 636.686886,397.767508 642.217507,392.659895 C649.488394,385.905088 654.151079,384.253525 675.642934,380.876122 L691.685469,378.282992 L691.920581,375.453925 C692.239191,371.526001 690.342915,368.227244 686.787673,366.57568 C682.204092,364.377965 669.086171,364.76901 655.810045,367.362139 C649.963012,368.541827 644.983916,369.168809 644.667504,368.854226 C643.79737,367.91266 641.980198,354.713261 642.613022,353.221174 C644.588401,348.034915 678.963064,343.320532 696.348154,345.75637 C707.253386,347.329287 715.945931,353.29982 719.975791,362.099419 C721.634758,365.634114 721.713861,366.890264 721.95117,395.803545 C722.109376,415.364522 721.872067,426.366206 721.399646,427.386418 L721.399646,427.386418 Z M622.992385,436.916817 C622.676818,437.939035 619.917791,438.096299 606.834877,438.096299 C595.090934,438.096299 590.916236,437.860403 590.442884,437.074081 C590.127316,436.604473 587.291589,426.941458 584.214803,415.707985 L578.622241,395.285473 L557.498923,395.285473 L536.377796,395.285473 L530.783043,415.707985 C527.708448,426.941458 524.87053,436.604473 524.557153,437.074081 C524.083802,437.860403 519.906912,438.096299 508.162969,438.096299 C495.082246,438.096299 492.32322,437.939035 492.007652,436.916817 C491.376516,435.424991 529.994123,311.548809 531.254203,310.68604 C532.595366,309.899719 582.40248,309.899719 583.743643,310.68604 C585.082615,311.548809 623.62133,435.424991 622.992385,436.916817 L622.992385,436.916817 Z M468.651467,438.096299 L451.702134,438.096299 L442.870155,422.536546 C431.045956,401.870327 431.598366,402.576099 428.051545,402.890746 L425.212772,403.126732 L424.818194,420.414861 L424.423616,437.70299 L410.549802,437.938975 C399.512568,438.096299 396.437049,437.938975 395.726808,437.073695 C395.097675,436.208414 394.939843,419.709089 395.018759,373.973772 L395.255506,312.051592 L406.685126,309.536598 C412.991804,308.122869 419.53742,307.021603 421.271373,307.100265 L424.423616,307.257589 L424.660363,345.13546 L424.818194,383.089808 L428.207184,383.089808 L431.598366,383.089808 L442.556684,365.408369 C448.547699,355.665224 453.828473,347.412284 454.301967,347.099821 C454.933292,346.62785 483.470077,347.884255 484.574896,348.434888 C485.364053,348.828197 483.07769,352.599596 471.172384,369.966387 C463.684163,380.889461 457.614233,390.475282 457.614233,391.340563 C457.614233,392.203658 464.078742,402.576099 472.040456,414.364453 C480.160002,426.622593 486.232125,436.367923 485.993186,436.995033 C485.679715,437.860313 482.446365,438.096299 468.651467,438.096299 L468.651467,438.096299 Z M367,322.595222 L367,338.096299 L352.173181,337.941137 L337.269208,337.708395 L337.031133,323.37103 C336.951774,315.543988 337.031133,308.64576 337.18985,308.102695 C337.507284,307.326886 341.074009,307.096299 352.331898,307.096299 L367,307.096299 L367,322.595222 Z M365.839748,393.916268 L365.602664,437.812799 L351.867115,438.049049 C342.471535,438.206549 337.815454,437.970299 337.1042,437.3403 C336.155861,436.63155 336,429.080305 336,393.758768 C336,370.315347 336.237085,350.883798 336.551002,350.647549 C336.788087,350.332549 343.577931,350.096299 351.551002,350.096299 L366,350.096299 L365.839748,393.916268 Z M317.782043,435.669678 C314.502826,438.967439 293.181403,440.304015 285.68481,437.790291 C280.294733,435.905544 275.217377,431.192585 272.87632,426.086515 L271,421.92391 L271,366.945206 L271,311.966503 L281.934342,309.452779 C287.947687,308.118387 294.430112,307.096299 296.38244,307.096299 L299.898368,307.253543 L300.289268,359.875767 C300.599817,400.48191 300.912537,412.891102 301.694337,414.227678 C303.099405,416.820024 305.129913,417.604061 310.05091,417.604061 C315.128266,417.604061 314.893726,417.291756 317.080595,428.049884 C317.938403,432.293294 318.251123,435.197945 317.782043,435.669678 L317.782043,435.669678 Z M256,438.096299 L237.68025,438.096299 L219.362686,438.096299 L200.572919,411.395787 L181.702265,384.776067 L177.614206,384.697459 L173.447447,384.697459 L173.292232,411.159963 L173.05613,437.703259 L157.724816,437.703259 L142.393503,437.703259 L142.157401,373.860475 L142,310.096299 L157.488715,310.253515 L173.05613,310.489339 L173.292232,335.853515 L173.447447,361.217691 L177.771607,360.981867 L182.095768,360.746043 L199.628512,335.617691 L217.161256,310.489339 L235.008802,310.253515 L252.854162,310.096299 L252.854162,312.688179 C252.854162,314.887019 249.474409,319.834955 231.941665,343.469755 C220.462308,358.940243 210.871766,372.054675 210.635665,372.604931 C210.478263,373.153003 220.541009,387.208547 233.119988,403.858155 C249.238307,425.139083 256,434.639731 256,436.054675 L256,438.096299 Z M1,540.096299 L959,540.096299 L959,218.096299 L1,218.096299 L1,540.096299 Z" id="Fill-24" fill="#020303"></path>
    </g>
</svg>